<?xml version="1.0" standalone="no"?>
<!DOCTYPE svg PUBLIC "-//W3C//DTD SVG 20010904//EN"
 "http://www.w3.org/TR/2001/REC-SVG-20010904/DTD/svg10.dtd">
<svg version="1.0" xmlns="http://www.w3.org/2000/svg"
 width="1200.000000pt" height="1200.000000pt" viewBox="0 0 1200.000000 1200.000000"
 preserveAspectRatio="xMidYMid meet">
<metadata>
Created by potrace 1.11, written by Peter Selinger 2001-2013
</metadata>
<g transform="translate(0.000000,1200.000000) scale(0.100000,-0.100000)"
fill="#000000" stroke="none">
<path d="M5768 11352 c-216 -110 -649 -313 -813 -383 -389 -164 -511 -214
-655 -267 -245 -89 -583 -198 -769 -248 -148 -39 -572 -137 -711 -163 -131
-25 -233 -43 -287 -51 -32 -5 -85 -14 -118 -20 -56 -10 -104 -18 -235 -40 -83
-13 -517 -80 -583 -90 -67 -10 -116 -36 -135 -71 -22 -41 -4 -665 48 -1649 6
-107 15 -276 20 -375 11 -213 26 -405 59 -800 16 -190 28 -265 91 -576 73
-362 90 -435 135 -599 19 -69 53 -192 76 -275 99 -367 185 -619 350 -1032 187
-468 356 -785 743 -1393 135 -213 479 -684 614 -840 232 -270 576 -614 787
-790 50 -40 124 -104 165 -140 346 -306 605 -507 800 -620 41 -24 135 -82 208
-128 74 -46 189 -111 255 -145 164 -83 186 -83 357 -3 159 75 619 351 755 454
92 70 389 318 594 497 101 88 207 179 235 201 57 46 332 323 506 509 208 223
454 546 737 972 210 314 457 736 574 979 170 352 369 868 502 1304 62 202 201
769 256 1045 43 221 66 359 80 495 6 52 15 138 21 190 12 113 27 360 60 965
37 682 49 972 56 1401 6 349 5 363 -13 381 -15 15 -70 29 -214 57 -175 33
-252 46 -459 77 -36 5 -94 14 -130 20 -36 5 -92 14 -125 18 -33 5 -98 17 -145
26 -47 9 -130 25 -185 35 -405 78 -715 151 -985 232 -152 45 -688 231 -795
275 -420 174 -967 423 -1287 587 -99 51 -180 86 -197 86 -18 0 -114 -43 -243
-108z"/>
</g>
</svg>
